HIERARCHY
ROOT ui
{
	 OFFSET 0 0 0
	 CHANNELS 3 XPosition YPosition Z Position
	 EndSite
	 {
	 OFFSET 0 -1 0
	 }
}
ROOT li
{
	 OFFSET 0 0 0
	 CHANNELS 3 XPosition YPosition Z Position
	 EndSite
	 {
	 OFFSET 0 -1 0
	 }
}
ROOT ul
{
	 OFFSET 0 0 0
	 CHANNELS 3 XPosition YPosition Z Position
	 EndSite
	 {
	 OFFSET 0 -1 0
	 }
}
ROOT ll
{
	 OFFSET 0 0 0
	 CHANNELS 3 XPosition YPosition Z Position
	 EndSite
	 {
	 OFFSET 0 -1 0
	 }
}
ROOT tt
{
	 OFFSET 0 0 0
	 CHANNELS 3 XPosition YPosition Z Position
	 EndSite
	 {
	 OFFSET 0 -1 0
	 }
}
ROOT tb
{
	 OFFSET 0 0 0
	 CHANNELS 3 XPosition YPosition Z Position
	 EndSite
	 {
	 OFFSET 0 -1 0
	 }
}
ROOT td
{
	 OFFSET 0 0 0
	 CHANNELS 3 XPosition YPosition Z Position
	 EndSite
	 {
	 OFFSET 0 -1 0
	 }
}
ROOT v
{
	 OFFSET 0 0 0
	 CHANNELS 3 XPosition YPosition Z Position
	 EndSite
	 {
	 OFFSET 0 -1 0
	 }
}
ROOT bn
{
	 OFFSET 0 0 0
	 CHANNELS 3 XPosition YPosition Z Position
	 EndSite
	 {
	 OFFSET 0 -1 0
	 }
}
MOTION
Frames: 29
Frame Time: 0.002
-0.006901889801025391	-0.0013088339567184448	0		0.5009956359863281	-2.316656005859375	0		-1.0060065307617188	-0.039674907684326174	0		-0.7076837768554688	-2.193468994140625	0		1.758822021484375	-0.866967041015625	0		3.55709375	-0.007705042839050293	0		4.75272314453125	0.07967088317871093	0		5.639537109375	0.1578053436279297	0		-0.4085960388183594	5.8047705078125	0		
0.054270679473876954	-6.310930252075196E-4	0		0.52504443359375	-2.320903076171875	0		-1.0118489379882813	-0.043769630432128906	0		-0.7195968017578125	-2.185561767578125	0		1.7569508056640626	-0.8672044677734375	0		3.52824462890625	-0.014955791473388672	0		4.74592578125	0.08731352233886719	0		5.63771484375	0.15738270568847657	0		-0.37613552856445315	5.809544921875	0		
-0.010609734535217285	-0.0016187039613723756	0		0.5050344848632813	-2.327037109375	0		-1.0097180786132813	-0.03988727188110352	0		-0.7116055297851562	-2.19371044921875	0		1.7550296630859374	-0.86744921875	0		3.51637158203125	-0.013261557579040528	0		4.75501318359375	0.069899658203125	0		5.6318203125	0.14795538330078126	0		-0.3977099609375	5.81446142578125	0		
0.06749580383300781	-0.0029997448921203615	0		0.5070348510742188	-2.32323291015625	0		-1.0016142578125	-0.041022052764892576	0		-0.784581298828125	-2.183634765625	0		1.77308544921875	-0.8707537841796875	0		3.5364267578125	-0.032662029266357424	0		4.7491748046875	0.08451815795898437	0		5.62993115234375	0.14550753784179687	0		-0.38427774047851565	5.82328125	0		
-0.010369072914123536	0.0010544350147247315	0		0.4990739440917969	-2.310400390625	0		-0.9994842529296875	-0.038138984680175785	0		-0.7065750122070312	-2.184978759765625	0		1.7651834716796875	-0.8639874267578125	0		3.54765625	0.004958107948303223	0		4.75433349609375	0.09210249328613282	0		5.632087890625	0.15404386901855469	0		-0.3858496704101563	5.8231435546875	0		
0.063779052734375	-0.003318974018096924	0		0.49310018920898435	-2.314569580078125	0		-1.01533203125	-0.0401999626159668	0		-0.7155479125976563	-2.191075439453125	0		1.754306396484375	-0.8612090454101563	0		3.49973876953125	-0.02225067138671875	0		4.7434658203125	0.07773348999023437	0		5.63428173828125	0.16258021545410156	0		-0.41643667602539064	5.80409326171875	0		
-0.018006938934326172	-0.002234369993209839	0		0.5171731567382812	-2.31981982421875	0		-1.017123291015625	-0.04029345703125	0		-0.7294387817382812	-2.186149658203125	0		1.750462646484375	-0.8644439086914063	0		3.520951171875	-0.021652009963989256	0		4.73269140625	0.07837083435058594	0		5.61948095703125	0.15517135620117187	0		-0.4179170837402344	5.8039677734375	0		
-0.002708935022354126	0.006578403949737549	0		0.460336181640625	-2.31481982421875	0		-1.018854248046875	-0.040376529693603516	0		-0.721307861328125	-2.19427783203125	0		1.7546668701171875	-0.8716921997070313	0		3.5232392578125	-0.015988577842712404	0		4.73499609375	0.08498042297363281	0		5.61776025390625	0.15473513793945312	0		-0.41933700561523435	5.80385302734375	0		
-0.021396646499633788	-0.002492948055267334	0		0.4975255126953125	-2.32408642578125	0		-1.0205170288085939	-0.040446063995361325	0		-0.721075439453125	-2.191369384765625	0		1.7239693603515625	-0.8688198852539063	0		3.516632568359375	0.0017169950008392334	0		4.7263232421875	0.07663874816894531	0		5.6161015625	0.15231484985351562	0		-0.39263009643554686	5.82366650390625	0		
0.05005617904663086	0.009175213813781738	0		0.4608610534667969	-2.311110107421875	0		-1.0130814208984376	-0.033527339935302734	0		-0.7177610473632813	-2.18745361328125	0		1.7623306884765626	-0.8721401977539063	0		3.50494970703125	-0.03054140281677246	0		4.73177587890625	0.08427485656738282	0		5.6275537109375	0.1608756103515625	0		-0.3729263916015625	5.81851513671875	0		
-0.007451540946960449	0.006261975765228272	0		0.5102156372070312	-2.320381591796875	0		-1.0236041259765625	-0.04053454971313476	0		-0.7243841552734375	-2.191488525390625	0		1.7207969970703125	-0.869191162109375	0		3.529518310546875	-0.008889389038085938	0		4.7302890625	0.08395660400390625	0		5.61706298828125	0.1605298767089844	0		-0.3891602783203125	5.808494140625	0		
0.0011110620498657226	-0.0028365569114685058	0		0.4806979064941406	-2.31838427734375	0		-1.0250150146484376	-0.0405505485534668	0		-0.7378859252929687	-2.186481201171875	0		1.7443671875	-0.8624237670898437	0		3.513064208984375	-0.023083799362182616	0		4.724869140625	0.07667713928222657	0		5.6206396484375	0.15316752624511717	0		-0.42529275512695314	5.80455859375	0		
0.04282046508789063	0.004977062225341797	0		0.4792691650390625	-2.3184541015625	0		-1.0203494873046874	-0.04556678771972656	0		-0.7673243408203125	-2.191400634765625	0		1.7179864501953126	-0.8694736328125	0		3.489776123046875	-0.014229266166687012	0		4.7275869140625	0.0833980712890625	0		5.61032421875	0.15087759399414064	0		-0.42533062744140626	5.80352978515625	0		
-0.0014297620058059692	-0.002909578084945679	0		0.46192556762695314	-2.321450439453125	0		-1.0135529174804687	-0.03857151031494141	0		-0.726645751953125	-2.189529541015625	0		1.725707763671875	-0.8736109008789062	0		3.520514892578125	-0.025526039123535155	0		4.73134716796875	0.07514132690429688	0		5.6140771484375	0.14156973266601564	0		-0.39721835327148436	5.822427734375	0		
4.431839883327484E-4	7.331500202417374E-5	0		0.49268890380859376	-2.319585693359375	0		-1.0196748657226562	-0.03351555252075195	0		-0.800859130859375	-2.18225927734375	0		1.7245308837890625	-0.873697021484375	0		3.50647705078125	0.0043490052223205565	0		4.7292705078125	0.0899300537109375	0		5.60200732421875	0.15934233093261718	0		-0.39908544921875	5.82344189453125	0		
-0.013592911720275878	0.006128814220428467	0		0.4775436096191406	-2.315548583984375	0		-1.0297564697265624	-0.040428485870361325	0		-0.7410191040039062	-2.184419189453125	0		1.760418701171875	-0.878886962890625	0		3.4873056640625	-0.029733139038085936	0		4.73217724609375	0.07572808837890625	0		5.61593359375	0.15205567932128905	0		-0.37890185546875	5.81839990234375	0		
-0.004606295108795166	-0.002875699996948242	0		0.4744522399902344	-2.31853271484375	0		-1.030740966796875	-0.04035557174682617	0		-0.7721184692382812	-2.19125537109375	0		1.71940576171875	-0.87679541015625	0		3.485373046875	-0.014848798751831054	0		4.7192041015625	0.07560586547851562	0		5.61495751953125	0.1518462371826172	0		-0.3946716003417969	5.80849658203125	0		
-0.0055203170776367185	-0.0028299739360809328	0		0.4734434509277344	-2.318506591796875	0		-1.031656494140625	-0.04026786041259765	0		-0.7351326904296875	-2.194310302734375	0		1.7184559326171875	-0.8768201904296875	0		3.518406494140625	-0.030063817977905274	0		4.723271484375	0.06744917297363281	0		5.6050498046875	0.15169328308105468	0		-0.4153303527832031	5.8136279296875	0		
-0.016336978912353514	0.006265894889831543	0		0.484482421875	-2.3245068359375	0		-1.0184993286132813	-0.038215641021728516	0		-0.8070321044921875	-2.183971435546875	0		1.7065660400390625	-0.8787889404296875	0		3.500641357421875	-0.006082798957824707	0		4.72148486328125	0.08233433532714844	0		5.60420068359375	0.1495322570800781	0		-0.40191366577148435	5.82365576171875	0		
-0.004141642093658447	2.9470399022102356E-4	0		0.4756488342285156	-2.3134228515625	0		-1.0242666015625	-0.033084564208984375	0		-0.7329176025390625	-2.18913232421875	0		1.7257451171875	-0.87985107421875	0		3.5007724609375	-0.030146207809448242	0		4.716685546875	0.07524940490722656	0		5.60745458984375	0.15837728881835939	0		-0.4024737548828125	5.8237451171875	0		
-0.007869872093200683	-0.0026080870628356935	0		0.4728377380371094	-2.31534716796875	0		-1.0340103759765624	-0.03992770385742188	0		-0.7737166137695313	-2.188875244140625	0		1.70499853515625	-0.878757568359375	0		3.535157470703125	-0.0013164319992065429	0		4.71597607421875	0.07516696166992187	0		5.6157431640625	0.15822181701660157	0		-0.4310452880859375	5.803947265625	0		
0.03451004791259766	0.0053326010704040526	0		0.4980863952636719	-2.3203623046875	0		-1.0346605224609375	-0.039793766021728516	0		-0.7484343872070313	-2.185844970703125	0		1.7043177490234376	-0.8787234497070312	0		3.5034619140625	-0.014236589431762696	0		4.7153359375	0.07509866333007813	0		5.5961005859375	0.15818228149414063	0		-0.3974645690917969	5.80893603515625	0		
-0.00909660816192627	-0.0024071760177612304	0		0.4514154357910156	-2.323107666015625	0		-1.03523974609375	-0.039652946472167966	0		-0.7771080322265626	-2.19061181640625	0		1.703708740234375	-0.8786798706054687	0		3.48286181640625	-0.020183757781982423	0		4.71476611328125	0.07504232788085938	0		5.6014951171875	0.149065673828125	0		-0.41781765747070315	5.814126953125	0		
0.04339144897460938	-0.003493035078048706	0		0.4897939453125	-2.33215771484375	0		-1.0217416381835938	-0.03755936813354492	0		-0.7726766967773437	-2.186493896484375	0		1.69417431640625	-0.8775958862304688	0		3.520286376953125	-0.03833462905883789	0		4.71126220703125	0.07400715637207031	0		5.605958984375	0.13996348571777345	0		-0.40209536743164065	5.82219189453125	0		
-0.033035144805908204	9.016159772872925E-4	0		0.47636376953125	-2.3080126953125	0		-1.022184814453125	-0.037412387847900394	0		-0.7331918334960937	-2.18650439453125	0		1.710736572265625	-0.8686029052734375	0		3.500985107421875	-2.6861399412155153E-4	0		4.717857421875	0.08194342041015625	0		5.6095556640625	0.14887442016601563	0		-0.40333932495117186	5.823322265625	0		
0.042566482543945315	-0.0032685120105743408	0		0.49786929321289064	-2.317996337890625	0		-1.0365762939453125	-0.039212574005126954	0		-0.7486332397460937	-2.18331005859375	0		1.6843035888671876	-0.8744454956054688	0		3.483474609375	-0.03420213317871094	0		4.71345556640625	0.07492828369140625	0		5.59421142578125	0.15786555480957032	0		-0.3695096130371094	5.83032177734375	0		
-0.06476073455810546	-0.001749740958213806	0		0.44248614501953126	-2.3126884765625	0		-1.0369090576171875	-0.0390662727355957	0		-0.7510392456054688	-2.1851650390625	0		1.701929931640625	-0.8784505004882812	0		3.493172119140625	-0.02623189353942871	0		4.7081044921875	0.06792401123046875	0		5.60885791015625	0.15075247192382812	0		-0.4187234191894531	5.81463330078125	0		
0.03198154640197754	0.005995454788208007	0		0.49510433959960937	-2.319789794921875	0		-1.0312169189453124	-0.04394528579711914	0		-0.7794090576171875	-2.18992236328125	0		1.698593994140625	-0.8843746948242187	0		3.498853271484375	-0.03424243545532227	0		4.71285009765625	0.0748876953125	0		5.5995673828125	0.14873771667480468	0		-0.3838232421875	5.81962548828125	0		
-0.03829633331298828	-0.0016243280172348023	0		0.45975833129882815	-2.328556884765625	0		-1.0234390258789063	-0.03683588790893555	0		-0.7397174682617188	-2.18994287109375	0		1.7073101806640625	-0.8873441772460937	0		3.509669677734375	-0.01726934814453125	0		4.7126083984375	0.07487530517578125	0		5.5993232421875	0.14869540405273438	0		-0.4048914489746094	5.82482861328125	0		
